<svg xmlns="http://www.w3.org/2000/svg" viewBox="0 0 100 100"><path d="M95.7,55.7l-10.9-4.8c-0.5-0.2-1.2-0.3-1.7-0.2l-8.5,1.5c-0.6-0.9-1.3-1.7-2.1-2.5l6.2-7.8c1-1.3,1.1-3.2,0.1-4.5l-6.4-9.2c1.5-3.2,1.2-7.2-1.2-10.3c-2.1-2.8-5.3-4.2-8.4-4c-0.8,0-1.4,0.9-1.1,1.7l2.4,6.9c0.3,0.8-0.6,1.5-1.3,1l-6.1-4.1c-0.7-0.5-1.7-0.2-1.9,0.6c-0.9,2.9-0.4,6.4,1.7,9.2c2.5,3.2,6.5,4.6,10,3.8l4.5,6.5l-4.7,5.9c-1.8-0.9-3.7-1.7-5.8-2.3c0.1-0.3,0.1-0.5,0.1-0.8c0-2.1-1.7-3.8-3.8-3.8c-1.9,0-3.5,1.4-3.7,3.3c-1-0.1-2.1-0.1-3.1-0.1s-2.1,0.1-3.1,0.1c-0.2-1.8-1.8-3.3-3.7-3.3c-2.1,0-3.8,1.7-3.8,3.8c0,0.3,0,0.6,0.1,0.8c-2.1,0.6-4,1.4-5.8,2.3l-4.7-5.9l4.5-6.5c3.5,0.8,7.5-0.6,10-3.8c2.1-2.8,2.6-6.2,1.7-9.2c-0.3-0.8-1.2-1.1-1.9-0.6l-6.1,4.1c-0.7,0.5-1.6-0.2-1.3-1l2.4-6.9c0.3-0.8-0.3-1.7-1.1-1.7c-3.1-0.1-6.3,1.3-8.4,4c-2.4,3.1-2.7,7.2-1.2,10.3l-6.4,9.2c-1,1.4-0.9,3.2,0.1,4.5l6.2,7.8c-0.8,0.8-1.5,1.7-2.1,2.5L17,50.7c-0.6-0.1-1.2,0-1.7,0.2L4.3,55.7c-1.6,0.7-2.3,2.5-1.6,4c0.5,1.2,1.6,1.8,2.8,1.8c0.4,0,0.8-0.1,1.2-0.3l10.1-4.4l6.2,1.1C23,58.7,23,59.3,23,60c0,0.2,0,0.4,0,0.6l-6.6,0.9c-0.7,0.1-1.3,0.4-1.7,0.9l-8.2,8.2c-1.2,1.2-1.2,3.1,0,4.3c0.6,0.6,1.4,0.9,2.2,0.9c0.8,0,1.6-0.3,2.2-0.9l7.5-7.5l6.4-0.9c0.5,0.8,1,1.7,1.6,2.4l-4.7,2.8c-0.5,0.3-0.8,0.7-1.1,1.1l-4.8,8.8c-0.8,1.5-0.3,3.3,1.2,4.2c0.5,0.3,1,0.4,1.5,0.4c1.1,0,2.1-0.6,2.7-1.6l4.4-8l5.6-3.4c4.9,3.3,11.6,5.3,18.9,5.3s14.1-2,18.9-5.3l5.6,3.4l4.4,8c0.6,1,1.6,1.6,2.7,1.6c0.5,0,1-0.1,1.5-0.4c1.5-0.8,2-2.7,1.2-4.2L79.5,73c-0.3-0.5-0.6-0.9-1.1-1.1L73.7,69c0.6-0.8,1.1-1.6,1.6-2.4l6.4,0.9l7.5,7.5c0.6,0.6,1.4,0.9,2.2,0.9c0.8,0,1.6-0.3,2.2-0.9c1.2-1.2,1.2-3.1,0-4.3l-8.2-8.2c-0.5-0.5-1.1-0.8-1.7-0.9L77,60.6c0-0.2,0-0.4,0-0.6c0-0.7-0.1-1.4-0.2-2l6.2-1.1l10.1,4.4c0.4,0.2,0.8,0.3,1.2,0.3c1.2,0,2.3-0.7,2.8-1.8C97.9,58.2,97.2,56.4,95.7,55.7z"/></svg>
