<svg xmlns="http://www.w3.org/2000/svg" viewBox="-5 -10 110 135"><path d="m48.586 1.1094c2.2227 1.6172 4.3438 2.9297 6.2617 4.5469 6.4648 5.3555 10.605 12.121 11.617 20.605 0.60547 5.5547-0.10156 10.91-1.918 16.16-1.5156 4.2422 0.20312 8.5859 4.1406 10.305 2.8281 1.2109 5.5547 0.80859 7.9805-1.0117 2.4258-1.918 3.4336-4.5469 2.9297-7.6758 0-0.20312-0.10156-0.50391-0.10156-0.80859 0.20312 0.10156 0.30469 0.10156 0.30469 0.20312 4.3438 7.0703 7.1719 14.645 7.1719 23.133 0.10156 11.211-5.0508 19.797-13.84 26.465-2.5234 1.918-5.2539 3.332-8.2812 4.4453 4.3438-4.0391 6.3633-8.7891 5.4531-14.645-0.70703-4.6445-3.2305-8.2812-6.5664-11.312-0.30469 1.4141-0.40234 2.9297-1.0117 4.2422-1.918 3.9375-7.0703 4.7461-10.305 1.8164-4.8477-4.4453-6.3633-10.102-5.8594-16.465 0.50781-5.9609 5.9609-17.68 5.9609-18.082-1.0117 0.30469-30 21.312-16.566 48.688 1.2109 2.5234 3.0312 4.7461 5.1523 6.668-0.80859-0.30469-1.5156-0.50391-2.3242-0.80859-7.6758-2.9297-14.039-7.5742-18.281-14.746-3.5352-5.9609-4.3438-12.426-3.6367-19.191 1.3125-11.617 6.5664-21.211 14.645-29.496 5.4531-5.5547 10.203-11.617 13.84-18.484 1.6172-3.1328 2.9297-6.3633 3.2305-9.8984 0.10547-1.418 0.003907-2.832 0.003907-4.6523z"/></svg>
