<svg xmlns="http://www.w3.org/2000/svg" viewBox="-5 -10 110 135"><path d="m64.555 20.801-3.5742-7.1523-3.5781 7.1523 1.9336 3.8672v3.4492c0 4.4297-3.1055 8.2539-7.4414 9.1602v-19.113l1.6641-3.3281-3.5781-7.1523-3.5742 7.1523 1.6641 3.3281v19.113c-4.3359-0.90625-7.4453-4.7305-7.4453-9.1602v-3.4492l1.9336-3.8672-3.5742-7.1523-3.5781 7.1523 1.9336 3.8672v3.4492c0.003906 6.2422 4.5586 11.551 10.73 12.496v49.789c0 1.0547 0.85547 1.9102 1.9102 1.9102 1.0586 0 1.9141-0.85547 1.9141-1.9102v-49.789c6.168-0.94531 10.727-6.2539 10.727-12.496v-3.4492z"/></svg>
