<svg xmlns="http://www.w3.org/2000/svg" viewBox="-5 -10 110 135"><path d="m37.5 21.801v14.25c-3.1758 1.875-11.523 7.1016-16.977 12.977-3.3242 3.5742-5.5234 7.4492-5.5234 10.977 0 18.523 13.227 31.773 13.227 31.773 0.47656 0.47656 1.1016 0.72656 1.7734 0.72656v1.0742c0 1.6992 0.67578 3.3516 1.875 4.5508 1.1992 1.1992 2.8516 1.875 4.5508 1.875h27.125c1.6992 0 3.3516-0.67578 4.5508-1.875 1.1992-1.1992 1.875-2.8516 1.875-4.5508v-1.0742c0.67578 0 1.3008-0.27344 1.7734-0.72656 0 0 13.227-13.25 13.227-31.773 0-3.5234-2.1992-7.3984-5.5234-10.977-5.4492-5.8516-13.801-11.074-16.977-12.977v-14.25c1.5-0.57422 3.6758-1.5742 5.5508-3.1016 2.4766-2 4.4492-4.8516 4.4492-8.6992 0-2.2734-1.1992-4.3008-3.5234-5.875-3.875-2.6484-11.398-4.125-18.977-4.125-7.5742 0-15.125 1.4492-18.977 4.125-2.3242 1.5742-3.5234 3.625-3.5234 5.875 0 3.8516 1.9766 6.6992 4.4492 8.6992 1.8984 1.5234 4.0508 2.5234 5.5508 3.1016zm27.5 70.699h-30v1.0742c0 0.375 0.14844 0.75 0.42578 1.0234 0.27344 0.27344 0.625 0.42578 1.0234 0.42578h27.125c0.375 0 0.75-0.14844 1.0234-0.42578 0.27344-0.27344 0.42578-0.625 0.42578-1.0234v-1.0742zm14.801-28.773c-6.0742 2.2266-18.602 6.2734-29.801 6.2734s-23.727-4.0508-29.801-6.2734c0.375 3.4258 1.1992 6.6016 2.2734 9.4766 1.625-1.6016 4.0742-3.1992 7.3008-3.1992 2.9258 0 4.9258 2.0234 6.4492 4.8242 0.72656 1.3516 1.375 2.8984 2.1992 4.1016 0.375 0.55078 0.72656 1.0742 1.375 1.0742 1.3242 0 2.1758-0.125 2.6016-0.64844 0.25-0.32422 0.125-0.75 0-1.125-0.44922-1.5-2.3242-2.1758-2.3242-2.1758-1.2734-0.52344-1.875-2-1.3516-3.2734 0.52344-1.2734 2-1.875 3.2734-1.3516 0 0 4.125 1.8242 5.1758 5.3242 0.60156 1.9766 0.375 4.0508-0.85156 5.6484-1.0742 1.375-3.0508 2.5742-6.5508 2.5742-2.9258 0-4.9258-2.0234-6.4492-4.8242-0.72656-1.3516-1.375-2.8984-2.1992-4.1016-0.375-0.55078-0.72656-1.0742-1.3516-1.0742-2.8242 0-4.4766 2.3008-5.0508 3.2266 2.4258 4.625 5.125 7.8984 6.3516 9.2734h37.824c1.2266-1.3516 3.8516-4.5508 6.25-9.0742-0.42578-0.75-2.125-3.4258-5.1484-3.4258-0.64844 0-1 0.55078-1.375 1.0742-0.82422 1.1992-1.4492 2.7266-2.1992 4.1016-1.5234 2.8008-3.5234 4.8242-6.4492 4.8242-3.4766 0-5.4766-1.1992-6.5508-2.5742-1.2266-1.6016-1.4492-3.6758-0.85156-5.6484 1.0508-3.5 5.1758-5.3242 5.1758-5.3242 1.2734-0.52344 2.75 0.074218 3.2734 1.3516 0.52344 1.2734-0.074219 2.75-1.3516 3.2734 0 0-1.875 0.67578-2.3242 2.1758-0.125 0.39844-0.22656 0.82422 0 1.125 0.39844 0.52344 1.2734 0.64844 2.6016 0.64844 0.64844 0 1-0.55078 1.375-1.0742 0.82422-1.1992 1.4492-2.7266 2.1992-4.1016 1.5234-2.8008 3.5234-4.8242 6.4492-4.8242 3.3516 0 5.8242 1.6992 7.4492 3.3516 1.1016-2.8984 1.9766-6.125 2.3516-9.625zm-55.574-11.352c-0.875 0.94922-1.6758 1.8984-2.3516 2.875-0.75 1.0742-1.3242 2.125-1.6484 3.1758 4.6992 1.8516 18.023 6.5742 29.75 6.5742 11.727 0 25.051-4.75 29.75-6.5742-0.32422-1.0508-0.89844-2.1016-1.6484-3.1758-0.67578-0.97656-1.4766-1.9258-2.3516-2.875-0.25 0.074219-0.5 0.125-0.77344 0.125-2.0234 0-2.8984 0.82422-3.6016 1.8242-0.47656 0.67578-0.92578 1.375-1.3984 2.0508-1.4766 1.9766-3.375 3.6484-7.4766 3.6484-2.6484 0-4.8242-1.4258-6.8516-3.3242-1.1016-1.0234-2.125-2.1992-3.25-3.1016-0.72656-0.57422-1.4766-1.0742-2.3984-1.0742-0.92578 0-1.6758 0.5-2.3984 1.0742-1.125 0.89844-2.1758 2.0742-3.25 3.1016-2 1.8984-4.1992 3.3242-6.8516 3.3242-4.1016 0-6-1.6758-7.4766-3.6484-0.5-0.64844-0.92578-1.375-1.3984-2.0508-0.69922-0.97656-1.6016-1.8242-3.6016-1.8242-0.27344 0-0.52344-0.050781-0.77344-0.125zm16.426-12.375c-1.6758 0.97656-6.9766 4.125-11.852 8.1484 1.6758 0.67578 2.75 1.7734 3.6758 3 0.5 0.64844 0.92578 1.375 1.3984 2.0508 0.69922 0.97656 1.6016 1.8242 3.6016 1.8242 0.92578 0 1.6758-0.5 2.3984-1.0742 1.125-0.89844 2.1758-2.0742 3.25-3.1016 2-1.8984 4.1992-3.3242 6.8516-3.3242 2.6484 0 4.8242 1.4258 6.8516 3.3242 1.1016 1.0234 2.125 2.1992 3.25 3.1016 0.72656 0.57422 1.4766 1.0742 2.3984 1.0742 2.0234 0 2.8984-0.82422 3.6016-1.8242 0.47656-0.67578 0.92578-1.375 1.3984-2.0508 0.92578-1.2266 2-2.3242 3.6758-3-4.875-4-10.148-7.1758-11.852-8.1484h-18.676zm21.852 7.5c1.375 0 2.5 1.125 2.5 2.5s-1.125 2.5-2.5 2.5-2.5-1.125-2.5-2.5 1.125-2.5 2.5-2.5zm-25 0c1.375 0 2.5 1.125 2.5 2.5s-1.125 2.5-2.5 2.5-2.5-1.125-2.5-2.5 1.125-2.5 2.5-2.5zm20-20v-7.5c0-1.1484 0.77344-2.1484 1.8984-2.4258 0 0 3.0508-0.77344 5.5-2.75 1.375-1.125 2.6016-2.6758 2.6016-4.8242 0-0.52344-0.32422-0.92578-0.75-1.3008-0.52344-0.44922-1.1758-0.85156-1.9492-1.2266-3.5742-1.6758-9.1758-2.4766-14.773-2.4766-5.6016 0-11.199 0.77344-14.773 2.4766-0.77344 0.375-1.4492 0.77344-1.9492 1.2266-0.42578 0.39844-0.75 0.80078-0.75 1.3008 0 2.1484 1.2266 3.6992 2.6016 4.8242 2.4492 2 5.5 2.75 5.5 2.75 1.125 0.27344 1.8984 1.2734 1.8984 2.4258v7.5c1.375 0 2.5 1.125 2.5 2.5s-1.125 2.5-2.5 2.5v2.5h15v-2.5c-1.375 0-2.5-1.125-2.5-2.5s1.125-2.5 2.5-2.5zm-7.5 0c1.375 0 2.5 1.125 2.5 2.5s-1.125 2.5-2.5 2.5-2.5-1.125-2.5-2.5 1.125-2.5 2.5-2.5zm-11.051-12.727c7.0742 3.2266 14.398 3.4492 22.074 0 1.25-0.57422 1.8242-2.0508 1.25-3.3008-0.57422-1.25-2.0508-1.8242-3.3008-1.25-6.2266 2.8008-12.199 2.6484-17.926 0-1.25-0.57422-2.75 0-3.3242 1.2266-0.57422 1.25 0 2.75 1.2266 3.3242z" fill-rule="evenodd"/></svg>
